<mxfile host="app.diagrams.net" agent="Mozilla/5.0 (Macintosh; Intel Mac OS X 10_15_7) AppleWebKit/537.36 (KHTML, like Gecko) Chrome/135.0.0.0 Safari/537.36" version="26.2.12">
  <diagram id="C5RBs43oDa-KdzZeNtuy" name="Page-1">
    <mxGraphModel dx="1275" dy="819" grid="1" gridSize="10" guides="1" tooltips="1" connect="1" arrows="1" fold="1" page="1" pageScale="1" pageWidth="1169" pageHeight="827" math="0" shadow="0">
      <root>
        <mxCell id="WIyWlLk6GJQsqaUBKTNV-0" />
        <mxCell id="WIyWlLk6GJQsqaUBKTNV-1" parent="WIyWlLk6GJQsqaUBKTNV-0" />
        <mxCell id="WIyWlLk6GJQsqaUBKTNV-3" value="ui&lt;div&gt;react+wagmi&lt;/div&gt;" style="rounded=1;whiteSpace=wrap;html=1;fontSize=12;glass=0;strokeWidth=1;shadow=0;" parent="WIyWlLk6GJQsqaUBKTNV-1" vertex="1">
          <mxGeometry y="420" width="120" height="40" as="geometry" />
        </mxCell>
        <mxCell id="Al4ZoM-40ktBuifCsNM9-0" value="&lt;div&gt;&lt;br&gt;&lt;/div&gt;&lt;div&gt;&lt;br&gt;&lt;/div&gt;" style="sketch=0;outlineConnect=0;fontColor=#232F3E;gradientColor=none;strokeColor=#232F3E;fillColor=#ffffff;dashed=0;verticalLabelPosition=bottom;verticalAlign=top;align=center;html=1;fontSize=12;fontStyle=0;aspect=fixed;shape=mxgraph.aws4.resourceIcon;resIcon=mxgraph.aws4.client;" vertex="1" parent="WIyWlLk6GJQsqaUBKTNV-1">
          <mxGeometry x="30" y="354" width="60" height="60" as="geometry" />
        </mxCell>
        <mxCell id="Al4ZoM-40ktBuifCsNM9-16" value="" style="endArrow=classic;html=1;rounded=0;exitX=1;exitY=0;exitDx=0;exitDy=0;labelBackgroundColor=default;entryX=0;entryY=0.5;entryDx=0;entryDy=0;" edge="1" parent="WIyWlLk6GJQsqaUBKTNV-1" source="WIyWlLk6GJQsqaUBKTNV-3" target="Al4ZoM-40ktBuifCsNM9-31">
          <mxGeometry relative="1" as="geometry">
            <mxPoint x="120" y="439.38" as="sourcePoint" />
            <mxPoint x="110" y="290" as="targetPoint" />
          </mxGeometry>
        </mxCell>
        <mxCell id="Al4ZoM-40ktBuifCsNM9-17" value="Deposit (send tx&lt;span style=&quot;background-color: light-dark(#ffffff, var(--ge-dark-color, #121212)); color: light-dark(rgb(0, 0, 0), rgb(255, 255, 255));&quot;&gt;)&lt;/span&gt;" style="edgeLabel;resizable=0;html=1;;align=center;verticalAlign=middle;" connectable="0" vertex="1" parent="Al4ZoM-40ktBuifCsNM9-16">
          <mxGeometry relative="1" as="geometry">
            <mxPoint as="offset" />
          </mxGeometry>
        </mxCell>
        <mxCell id="Al4ZoM-40ktBuifCsNM9-21" value="L1 Canonical Message Service" style="swimlane;startSize=20;horizontal=1;containerType=tree;fontStyle=1" vertex="1" parent="WIyWlLk6GJQsqaUBKTNV-1">
          <mxGeometry x="680" y="140" width="360" height="260" as="geometry" />
        </mxCell>
        <mxCell id="Al4ZoM-40ktBuifCsNM9-22" value="" style="edgeStyle=elbowEdgeStyle;elbow=vertical;sourcePerimeterSpacing=0;targetPerimeterSpacing=0;startArrow=none;endArrow=none;rounded=0;curved=0;" edge="1" parent="Al4ZoM-40ktBuifCsNM9-21" source="Al4ZoM-40ktBuifCsNM9-23" target="Al4ZoM-40ktBuifCsNM9-24">
          <mxGeometry relative="1" as="geometry" />
        </mxCell>
        <mxCell id="Al4ZoM-40ktBuifCsNM9-23" value="Parent" style="whiteSpace=wrap;html=1;treeFolding=1;treeMoving=1;newEdgeStyle={&quot;edgeStyle&quot;:&quot;elbowEdgeStyle&quot;,&quot;startArrow&quot;:&quot;none&quot;,&quot;endArrow&quot;:&quot;none&quot;};" vertex="1" parent="Al4ZoM-40ktBuifCsNM9-21">
          <mxGeometry x="140" y="60" width="120" height="40" as="geometry" />
        </mxCell>
        <mxCell id="Al4ZoM-40ktBuifCsNM9-24" value="Child" style="whiteSpace=wrap;html=1;treeFolding=1;treeMoving=1;newEdgeStyle={&quot;edgeStyle&quot;:&quot;elbowEdgeStyle&quot;,&quot;startArrow&quot;:&quot;none&quot;,&quot;endArrow&quot;:&quot;none&quot;};" vertex="1" parent="Al4ZoM-40ktBuifCsNM9-21">
          <mxGeometry x="140" y="140" width="120" height="40" as="geometry" />
        </mxCell>
        <mxCell id="Al4ZoM-40ktBuifCsNM9-25" value="Layer 2 - Linea Sepolia" style="swimlane;startSize=20;horizontal=1;containerType=tree;fontStyle=1" vertex="1" parent="WIyWlLk6GJQsqaUBKTNV-1">
          <mxGeometry x="160" y="480" width="360" height="280" as="geometry" />
        </mxCell>
        <mxCell id="Al4ZoM-40ktBuifCsNM9-29" value="Layer 1 - Sepolia" style="swimlane;startSize=20;horizontal=1;containerType=tree;fontStyle=1" vertex="1" parent="WIyWlLk6GJQsqaUBKTNV-1">
          <mxGeometry x="160" y="80" width="360" height="320" as="geometry" />
        </mxCell>
        <mxCell id="Al4ZoM-40ktBuifCsNM9-46" style="edgeStyle=elbowEdgeStyle;rounded=0;orthogonalLoop=1;jettySize=auto;html=1;startArrow=none;endArrow=none;entryX=0.5;entryY=0;entryDx=0;entryDy=0;" edge="1" parent="Al4ZoM-40ktBuifCsNM9-29" source="Al4ZoM-40ktBuifCsNM9-31" target="Al4ZoM-40ktBuifCsNM9-42">
          <mxGeometry relative="1" as="geometry" />
        </mxCell>
        <mxCell id="Al4ZoM-40ktBuifCsNM9-31" value="&lt;div&gt;&lt;b&gt;Bridge contract&lt;/b&gt;&lt;/div&gt;" style="whiteSpace=wrap;html=1;treeFolding=1;treeMoving=1;newEdgeStyle={&quot;edgeStyle&quot;:&quot;elbowEdgeStyle&quot;,&quot;startArrow&quot;:&quot;none&quot;,&quot;endArrow&quot;:&quot;none&quot;};" vertex="1" parent="Al4ZoM-40ktBuifCsNM9-29">
          <mxGeometry x="140" y="60" width="120" height="40" as="geometry" />
        </mxCell>
        <mxCell id="Al4ZoM-40ktBuifCsNM9-42" value="&amp;nbsp;1. Receives deposits from users on L1." style="rounded=0;whiteSpace=wrap;html=1;" vertex="1" parent="Al4ZoM-40ktBuifCsNM9-29">
          <mxGeometry x="110" y="140" width="180" height="40" as="geometry" />
        </mxCell>
        <mxCell id="Al4ZoM-40ktBuifCsNM9-49" style="edgeStyle=elbowEdgeStyle;rounded=0;orthogonalLoop=1;jettySize=auto;html=1;startArrow=none;endArrow=none;entryX=0.5;entryY=0;entryDx=0;entryDy=0;" edge="1" target="Al4ZoM-40ktBuifCsNM9-50" source="Al4ZoM-40ktBuifCsNM9-42" parent="Al4ZoM-40ktBuifCsNM9-29">
          <mxGeometry relative="1" as="geometry">
            <mxPoint x="360" y="180" as="sourcePoint" />
          </mxGeometry>
        </mxCell>
        <mxCell id="Al4ZoM-40ktBuifCsNM9-50" value="2.&amp;nbsp;&lt;span style=&quot;color: light-dark(rgb(0, 0, 0), rgb(255, 255, 255)); background-color: transparent;&quot;&gt;Emits events upon successful deposit&lt;/span&gt;" style="rounded=0;whiteSpace=wrap;html=1;" vertex="1" parent="Al4ZoM-40ktBuifCsNM9-29">
          <mxGeometry x="110" y="230" width="180" height="40" as="geometry" />
        </mxCell>
        <mxCell id="JIerVflunIPj5snYrkfn-5" value="" style="endArrow=classic;html=1;rounded=0;entryX=0;entryY=0.25;entryDx=0;entryDy=0;exitX=1;exitY=0;exitDx=0;exitDy=0;" edge="1" parent="WIyWlLk6GJQsqaUBKTNV-1" source="Al4ZoM-40ktBuifCsNM9-50" target="Al4ZoM-40ktBuifCsNM9-23">
          <mxGeometry relative="1" as="geometry">
            <mxPoint x="520" y="305" as="sourcePoint" />
            <mxPoint x="520" y="355" as="targetPoint" />
          </mxGeometry>
        </mxCell>
        <mxCell id="JIerVflunIPj5snYrkfn-6" value="call sendMessage" style="edgeLabel;resizable=0;html=1;;align=center;verticalAlign=middle;" connectable="0" vertex="1" parent="JIerVflunIPj5snYrkfn-5">
          <mxGeometry relative="1" as="geometry" />
        </mxCell>
        <mxCell id="JIerVflunIPj5snYrkfn-7" value="" style="endArrow=classic;html=1;rounded=0;exitX=1;exitY=1;exitDx=0;exitDy=0;" edge="1" parent="WIyWlLk6GJQsqaUBKTNV-1" source="Al4ZoM-40ktBuifCsNM9-50">
          <mxGeometry relative="1" as="geometry">
            <mxPoint x="460" y="340" as="sourcePoint" />
            <mxPoint x="820" y="210" as="targetPoint" />
          </mxGeometry>
        </mxCell>
        <mxCell id="JIerVflunIPj5snYrkfn-8" value="call Deposit" style="edgeLabel;resizable=0;html=1;;align=center;verticalAlign=middle;" connectable="0" vertex="1" parent="JIerVflunIPj5snYrkfn-7">
          <mxGeometry relative="1" as="geometry" />
        </mxCell>
        <mxCell id="xB9apE_VVICnf2WEtKJq-2" value="Cross-Chain Relay (Postman Linea Infra)" style="label;whiteSpace=wrap;html=1;image=img/clipart/Gear_128x128.png" vertex="1" parent="WIyWlLk6GJQsqaUBKTNV-1">
          <mxGeometry x="720" y="430" width="290" height="60" as="geometry" />
        </mxCell>
        <mxCell id="xB9apE_VVICnf2WEtKJq-3" value="L2 Canonical Message Service" style="swimlane;startSize=20;horizontal=1;containerType=tree;fontStyle=1" vertex="1" parent="WIyWlLk6GJQsqaUBKTNV-1">
          <mxGeometry x="685" y="520" width="360" height="260" as="geometry" />
        </mxCell>
        <mxCell id="xB9apE_VVICnf2WEtKJq-4" value="" style="edgeStyle=elbowEdgeStyle;elbow=vertical;sourcePerimeterSpacing=0;targetPerimeterSpacing=0;startArrow=none;endArrow=none;rounded=0;curved=0;" edge="1" parent="xB9apE_VVICnf2WEtKJq-3" source="xB9apE_VVICnf2WEtKJq-5" target="xB9apE_VVICnf2WEtKJq-6">
          <mxGeometry relative="1" as="geometry" />
        </mxCell>
        <mxCell id="xB9apE_VVICnf2WEtKJq-5" value="Parent" style="whiteSpace=wrap;html=1;treeFolding=1;treeMoving=1;newEdgeStyle={&quot;edgeStyle&quot;:&quot;elbowEdgeStyle&quot;,&quot;startArrow&quot;:&quot;none&quot;,&quot;endArrow&quot;:&quot;none&quot;};" vertex="1" parent="xB9apE_VVICnf2WEtKJq-3">
          <mxGeometry x="140" y="60" width="120" height="40" as="geometry" />
        </mxCell>
        <mxCell id="xB9apE_VVICnf2WEtKJq-6" value="Child" style="whiteSpace=wrap;html=1;treeFolding=1;treeMoving=1;newEdgeStyle={&quot;edgeStyle&quot;:&quot;elbowEdgeStyle&quot;,&quot;startArrow&quot;:&quot;none&quot;,&quot;endArrow&quot;:&quot;none&quot;};" vertex="1" parent="xB9apE_VVICnf2WEtKJq-3">
          <mxGeometry x="140" y="140" width="120" height="40" as="geometry" />
        </mxCell>
      </root>
    </mxGraphModel>
  </diagram>
</mxfile>
